<mxfile host="app.diagrams.net" agent="Mozilla/5.0 (Windows NT 10.0; Win64; x64) AppleWebKit/537.36 (KHTML, like Gecko) Chrome/135.0.0.0 Safari/537.36" version="26.2.13">
  <diagram name="‫עמוד-1‬" id="F9koiI-dId-FUdCRK4do">
    <mxGraphModel dx="1284" dy="521" grid="1" gridSize="10" guides="1" tooltips="1" connect="1" arrows="1" fold="1" page="1" pageScale="1" pageWidth="827" pageHeight="1169" math="0" shadow="0">
      <root>
        <mxCell id="0" />
        <mxCell id="1" parent="0" />
        <mxCell id="8u_HndGuRmfwxLuXJwRq-1" style="edgeStyle=orthogonalEdgeStyle;rounded=0;orthogonalLoop=1;jettySize=auto;html=1;" parent="1" source="CS0H_vIfwhxHm7cUsHS1-1" target="CS0H_vIfwhxHm7cUsHS1-5" edge="1">
          <mxGeometry relative="1" as="geometry" />
        </mxCell>
        <mxCell id="CS0H_vIfwhxHm7cUsHS1-1" value="User&lt;div&gt;&lt;br&gt;&lt;/div&gt;" style="shape=umlActor;verticalLabelPosition=bottom;verticalAlign=top;html=1;outlineConnect=0;" parent="1" vertex="1">
          <mxGeometry x="426.75" y="30" width="30" height="60" as="geometry" />
        </mxCell>
        <mxCell id="CS0H_vIfwhxHm7cUsHS1-5" value="" style="outlineConnect=0;dashed=0;verticalLabelPosition=bottom;verticalAlign=top;align=center;html=1;shape=mxgraph.aws3.application_load_balancer;fillColor=#F58534;gradientColor=none;" parent="1" vertex="1">
          <mxGeometry x="420" y="130" width="43.5" height="42" as="geometry" />
        </mxCell>
        <mxCell id="CS0H_vIfwhxHm7cUsHS1-18" value="Public subnet" style="points=[[0,0],[0.25,0],[0.5,0],[0.75,0],[1,0],[1,0.25],[1,0.5],[1,0.75],[1,1],[0.75,1],[0.5,1],[0.25,1],[0,1],[0,0.75],[0,0.5],[0,0.25]];outlineConnect=0;gradientColor=none;html=1;whiteSpace=wrap;fontSize=12;fontStyle=0;container=1;pointerEvents=0;collapsible=0;recursiveResize=0;shape=mxgraph.aws4.group;grIcon=mxgraph.aws4.group_security_group;grStroke=0;strokeColor=#7AA116;fillColor=#F2F6E8;verticalAlign=top;align=left;spacingLeft=30;fontColor=#248814;dashed=0;" parent="1" vertex="1">
          <mxGeometry x="170" y="197" width="610" height="325" as="geometry" />
        </mxCell>
        <mxCell id="CS0H_vIfwhxHm7cUsHS1-26" value="VPC" style="sketch=0;outlineConnect=0;gradientColor=none;html=1;whiteSpace=wrap;fontSize=12;fontStyle=0;shape=mxgraph.aws4.group;grIcon=mxgraph.aws4.group_vpc;strokeColor=#879196;fillColor=none;verticalAlign=top;align=left;spacingLeft=30;fontColor=#879196;dashed=0;" parent="CS0H_vIfwhxHm7cUsHS1-18" vertex="1">
          <mxGeometry x="-116" y="-25" width="726" height="350" as="geometry" />
        </mxCell>
        <mxCell id="CS0H_vIfwhxHm7cUsHS1-10" value="Auto Scaling group" style="points=[[0,0],[0.25,0],[0.5,0],[0.75,0],[1,0],[1,0.25],[1,0.5],[1,0.75],[1,1],[0.75,1],[0.5,1],[0.25,1],[0,1],[0,0.75],[0,0.5],[0,0.25]];outlineConnect=0;gradientColor=none;html=1;whiteSpace=wrap;fontSize=12;fontStyle=0;container=1;pointerEvents=0;collapsible=0;recursiveResize=0;shape=mxgraph.aws4.groupCenter;grIcon=mxgraph.aws4.group_auto_scaling_group;grStroke=1;strokeColor=#D86613;fillColor=none;verticalAlign=top;align=center;fontColor=#D86613;dashed=1;spacingTop=25;" parent="CS0H_vIfwhxHm7cUsHS1-18" vertex="1">
          <mxGeometry x="-60" y="23" width="570" height="292.43" as="geometry" />
        </mxCell>
        <mxCell id="CS0H_vIfwhxHm7cUsHS1-13" value="" style="sketch=0;outlineConnect=0;fontColor=#232F3E;gradientColor=none;fillColor=#ED7100;strokeColor=none;dashed=0;verticalLabelPosition=bottom;verticalAlign=top;align=center;html=1;fontSize=12;fontStyle=0;aspect=fixed;pointerEvents=1;shape=mxgraph.aws4.auto_scaling2;" parent="CS0H_vIfwhxHm7cUsHS1-10" vertex="1">
          <mxGeometry x="206" y="50" width="41" height="41" as="geometry" />
        </mxCell>
        <mxCell id="CS0H_vIfwhxHm7cUsHS1-4" value="" style="sketch=0;outlineConnect=0;fontColor=#232F3E;gradientColor=none;fillColor=#ED7100;strokeColor=none;dashed=0;verticalLabelPosition=bottom;verticalAlign=top;align=center;html=1;fontSize=12;fontStyle=0;aspect=fixed;pointerEvents=1;shape=mxgraph.aws4.ec2_m1_mac_instance;" parent="CS0H_vIfwhxHm7cUsHS1-10" vertex="1">
          <mxGeometry x="376" y="18" width="48" height="48" as="geometry" />
        </mxCell>
        <mxCell id="CS0H_vIfwhxHm7cUsHS1-21" style="edgeStyle=orthogonalEdgeStyle;rounded=0;orthogonalLoop=1;jettySize=auto;html=1;" parent="CS0H_vIfwhxHm7cUsHS1-10" source="CS0H_vIfwhxHm7cUsHS1-19" target="CS0H_vIfwhxHm7cUsHS1-4" edge="1">
          <mxGeometry relative="1" as="geometry" />
        </mxCell>
        <mxCell id="CS0H_vIfwhxHm7cUsHS1-19" value="" style="image;sketch=0;aspect=fixed;html=1;points=[];align=center;fontSize=12;image=img/lib/mscae/Network_Security_Groups_Classic.svg;" parent="CS0H_vIfwhxHm7cUsHS1-10" vertex="1">
          <mxGeometry x="215" y="100" width="23" height="31.08" as="geometry" />
        </mxCell>
        <mxCell id="CS0H_vIfwhxHm7cUsHS1-2" value="" style="sketch=0;outlineConnect=0;fontColor=#232F3E;gradientColor=none;fillColor=#ED7100;strokeColor=none;dashed=0;verticalLabelPosition=bottom;verticalAlign=top;align=center;html=1;fontSize=12;fontStyle=0;aspect=fixed;pointerEvents=1;shape=mxgraph.aws4.ec2_m1_mac_instance;" parent="1" vertex="1">
          <mxGeometry x="234" y="238" width="48" height="48" as="geometry" />
        </mxCell>
        <mxCell id="CS0H_vIfwhxHm7cUsHS1-22" style="edgeStyle=orthogonalEdgeStyle;rounded=0;orthogonalLoop=1;jettySize=auto;html=1;" parent="1" source="CS0H_vIfwhxHm7cUsHS1-19" target="CS0H_vIfwhxHm7cUsHS1-2" edge="1">
          <mxGeometry relative="1" as="geometry" />
        </mxCell>
        <mxCell id="CS0H_vIfwhxHm7cUsHS1-27" value="Private subnet" style="points=[[0,0],[0.25,0],[0.5,0],[0.75,0],[1,0],[1,0.25],[1,0.5],[1,0.75],[1,1],[0.75,1],[0.5,1],[0.25,1],[0,1],[0,0.75],[0,0.5],[0,0.25]];outlineConnect=0;gradientColor=none;html=1;whiteSpace=wrap;fontSize=12;fontStyle=0;container=1;pointerEvents=0;collapsible=0;recursiveResize=0;shape=mxgraph.aws4.group;grIcon=mxgraph.aws4.group_security_group;grStroke=0;strokeColor=#00A4A6;fillColor=#E6F6F7;verticalAlign=top;align=left;spacingLeft=30;fontColor=#147EBA;dashed=0;" parent="1" vertex="1">
          <mxGeometry x="260" y="370" width="370" height="150" as="geometry" />
        </mxCell>
        <mxCell id="CS0H_vIfwhxHm7cUsHS1-24" value="" style="outlineConnect=0;dashed=0;verticalLabelPosition=bottom;verticalAlign=top;align=center;html=1;shape=mxgraph.aws3.rds_db_instance_standby_multi_az;fillColor=#2E73B8;gradientColor=none;" parent="CS0H_vIfwhxHm7cUsHS1-27" vertex="1">
          <mxGeometry x="230" y="50" width="39.5" height="50" as="geometry" />
        </mxCell>
        <mxCell id="CS0H_vIfwhxHm7cUsHS1-23" value="" style="outlineConnect=0;dashed=0;verticalLabelPosition=bottom;verticalAlign=top;align=center;html=1;shape=mxgraph.aws3.rds_db_instance;fillColor=#2E73B8;gradientColor=none;" parent="CS0H_vIfwhxHm7cUsHS1-27" vertex="1">
          <mxGeometry x="70" y="50" width="39.5" height="50" as="geometry" />
        </mxCell>
        <mxCell id="CS0H_vIfwhxHm7cUsHS1-31" style="edgeStyle=orthogonalEdgeStyle;rounded=0;orthogonalLoop=1;jettySize=auto;html=1;" parent="CS0H_vIfwhxHm7cUsHS1-27" source="CS0H_vIfwhxHm7cUsHS1-29" target="CS0H_vIfwhxHm7cUsHS1-24" edge="1">
          <mxGeometry relative="1" as="geometry" />
        </mxCell>
        <mxCell id="CS0H_vIfwhxHm7cUsHS1-32" style="edgeStyle=orthogonalEdgeStyle;rounded=0;orthogonalLoop=1;jettySize=auto;html=1;" parent="CS0H_vIfwhxHm7cUsHS1-27" source="CS0H_vIfwhxHm7cUsHS1-29" target="CS0H_vIfwhxHm7cUsHS1-23" edge="1">
          <mxGeometry relative="1" as="geometry" />
        </mxCell>
        <mxCell id="CS0H_vIfwhxHm7cUsHS1-29" value="" style="image;sketch=0;aspect=fixed;html=1;points=[];align=center;fontSize=12;image=img/lib/mscae/Network_Security_Groups_Classic.svg;" parent="CS0H_vIfwhxHm7cUsHS1-27" vertex="1">
          <mxGeometry x="160" y="100" width="24" height="32.43" as="geometry" />
        </mxCell>
      </root>
    </mxGraphModel>
  </diagram>
</mxfile>
